<svg xmlns="http://www.w3.org/2000/svg" xmlns:xlink="http://www.w3.org/1999/xlink" viewBox="0 0 3756.7 6909.32"><defs><style>.cls-1,.cls-10,.cls-15,.cls-16,.cls-2,.cls-3,.cls-4,.cls-5,.cls-6{fill:none;}.cls-1,.cls-3{stroke:#363636;}.cls-1,.cls-10,.cls-15,.cls-16,.cls-18,.cls-2,.cls-3,.cls-4,.cls-5,.cls-6{stroke-miterlimit:10;}.cls-1{stroke-width:1.5px;}.cls-10,.cls-2,.cls-4{stroke:#fff;}.cls-2{stroke-width:2px;}.cls-5{stroke:#cbcbcb;}.cls-15,.cls-6{stroke:#666;}.cls-7{fill:#fff;}.cls-8{fill:#cbcbcb;}.cls-9{clip-path:url(#clip-path);}.cls-10{stroke-width:4px;}.cls-11{clip-path:url(#clip-path-2);}.cls-12{clip-path:url(#clip-path-3);}.cls-13{clip-path:url(#clip-path-4);}.cls-14{fill:#c82425;}.cls-15{stroke-width:1.69px;}.cls-16,.cls-18{stroke:#000;}.cls-17{font-size:0.52px;font-family:MyriadPro-Regular, Myriad Pro;}.cls-18{stroke-width:0.5px;}</style><clipPath id="clip-path" transform="translate(0 -464)"><circle class="cls-1" cx="2080.51" cy="1591.72" r="21.54" transform="translate(-333.94 575.58) rotate(-14.59)"/></clipPath><clipPath id="clip-path-2" transform="translate(0 -464)"><circle class="cls-2" cx="2045.59" cy="6588.79" r="29.99"/></clipPath><clipPath id="clip-path-3" transform="translate(0 -464)"><circle class="cls-3" cx="3189.06" cy="1583.68" r="12.78" transform="translate(-296.14 854.65) rotate(-14.59)"/></clipPath><clipPath id="clip-path-4" transform="translate(0 -464)"><circle class="cls-4" cx="3293.98" cy="5950.94" r="20.33"/></clipPath></defs><title>Ресурс 2</title><g id="Слой_2" data-name="Слой 2"><g id="Главная"><circle class="cls-3" cx="1701.78" cy="2077.46" r="33.05"/><circle class="cls-3" cx="1857.43" cy="2077.46" r="33.05"/><circle class="cls-3" cx="2013.07" cy="2077.46" r="33.05"/><line class="cls-5" y1="6091.49" x2="76" y2="6091.49"/><circle id="_Контур_" data-name="&lt;Контур&gt;" class="cls-6" cx="2163.44" cy="6808.68" r="22.68"/><circle id="_Контур_2" data-name="&lt;Контур&gt;" class="cls-6" cx="2163.44" cy="6886.14" r="22.68"/><circle id="_Контур_3" data-name="&lt;Контур&gt;" class="cls-6" cx="3400.94" cy="5870.68" r="22.68"/><circle id="_Контур_4" data-name="&lt;Контур&gt;" class="cls-6" cx="3400.94" cy="5948.14" r="22.68"/><circle class="cls-2" cx="2045.54" cy="6124.79" r="59"/><circle class="cls-2" cx="1496.88" cy="6124.79" r="59"/><path class="cls-7" d="M1511.42,6557.37a3.46,3.46,0,0,1,3.45,3.45v58.8a3.46,3.46,0,0,1-3.45,3.45h-29.09a3.46,3.46,0,0,1-3.45-3.45v-58.8a3.46,3.46,0,0,1,3.45-3.45h29.09m0-2h-29.09a5.45,5.45,0,0,0-5.45,5.45v58.8a5.45,5.45,0,0,0,5.45,5.45h29.09a5.45,5.45,0,0,0,5.45-5.45v-58.8a5.45,5.45,0,0,0-5.45-5.45Z" transform="translate(0 -464)"/><path class="cls-7" d="M1496.88,6616.13a1.49,1.49,0,1,1-1.49,1.49,1.49,1.49,0,0,1,1.49-1.49m0-2a3.49,3.49,0,1,0,3.49,3.49,3.49,3.49,0,0,0-3.49-3.49Z" transform="translate(0 -464)"/><line class="cls-2" x1="1476.88" y1="6100.14" x2="1516.88" y2="6100.14"/><line class="cls-2" x1="1476.88" y1="6146.95" x2="1516.88" y2="6146.95"/><polyline class="cls-2" points="1497.93 6113.19 1507.28 6113.19 1507.28 6121.69"/><line class="cls-2" x1="1487.78" y1="6132.69" x2="1507.28" y2="6113.19"/><path class="cls-2" d="M1746.45,6592.52a13.5,13.5,0,1,1,23.64-8.91,13.5,13.5,0,1,1,24.27,8.14c-.61.8-24.27,26.72-24.27,26.72S1748.92,6595.33,1746.45,6592.52Z" transform="translate(0 -464)"/><circle class="cls-2" cx="1770.09" cy="6124.79" r="59"/><path class="cls-8" d="M1571.82,3803v38h-138v-38h138m1-1h-140v40h140v-40Z" transform="translate(0 -464)"/><path class="cls-8" d="M1775.94,3803v38h-138v-38h138m1-1h-140v40h140v-40Z" transform="translate(0 -464)"/><circle class="cls-1" cx="1468.94" cy="1132.1" r="59"/><path class="cls-1" d="M1492.94,1577.43h-48a16.89,16.89,0,0,0,12.45,16.28,14.62,14.62,0,0,0,9.9,5.57v7.21a11.57,11.57,0,0,1-11.57,11.57v4h26.45v-4a11.57,11.57,0,0,1-11.57-11.57v-7.21a14.62,14.62,0,0,0,9.9-5.57h0A16.89,16.89,0,0,0,1492.94,1577.43Zm-44.5,3h5.87v4.32a14.53,14.53,0,0,0,.74,4.56l.08.26C1451.07,1587.46,1448.44,1584.16,1448.44,1580.43Zm34.39,8.9a14.54,14.54,0,0,0,.74-4.58v-4.32h5.87c0,3.73-2.63,7-6.68,9.13A2,2,0,0,1,1482.84,1589.33Z" transform="translate(0 -464)"/><circle class="cls-1" cx="1774.09" cy="1132.1" r="59"/><path class="cls-1" d="M1774.09,1615.47s8.35.11,8.35-7.11h0a25.35,25.35,0,0,1-1.22-7.64,10.74,10.74,0,0,1-2.45,2,15.91,15.91,0,0,1-9,0,12.52,12.52,0,0,1-2.88-2.43c-.09,2.67-.39,6-1.24,8.08h0C1765.74,1615.58,1774.09,1615.47,1774.09,1615.47Z" transform="translate(0 -464)"/><path class="cls-1" d="M1794.24,1612.69c-2.08-1.15-11.17-4.12-11.77-4.31h0c0,7.22-8.35,7.11-8.35,7.11s-8.35.11-8.35-7.11h0c-.6.2-9.69,3.16-11.77,4.31s-3.58,2.55-3.58,4.94c0,.84,5.52,6.57,24,6.57s23.5-5.74,23.5-6.57C1797.82,1615.23,1796.39,1613.88,1794.24,1612.69Z" transform="translate(0 -464)"/><path class="cls-1" d="M1787.86,1584.92a1.61,1.61,0,0,0-1.45.36,6.94,6.94,0,0,1-1.85,2.69c1.08-2.46-.12-9-1.68-10.22a7.42,7.42,0,0,1-2.16-3.15c-.6,1.84-10.22,1.59-13.4,3.09a7.38,7.38,0,0,0-4.33,5.77,12.14,12.14,0,0,0,.54,4.93,26.2,26.2,0,0,1-1.6-3.27,1.49,1.49,0,0,0-1.22-.21c-1.45.43-1,6.68,2.69,7.59h0a33.38,33.38,0,0,0,.78,4.24,16.55,16.55,0,0,0,2.78,3.56,12.52,12.52,0,0,0,2.88,2.43,15.91,15.91,0,0,0,9,0,10.74,10.74,0,0,0,2.45-2,18.39,18.39,0,0,0,3.21-4,33.37,33.37,0,0,0,.78-4.26C1788.84,1591.51,1789.52,1585.41,1787.86,1584.92Z" transform="translate(0 -464)"/><path class="cls-1" d="M1781.49,1571.14s-.78-2.77-8.36-3.13c-6.95-.33-15.88,5.55-11.22,17.11a26.2,26.2,0,0,0,1.6,3.27,12.14,12.14,0,0,1-.54-4.93,7.38,7.38,0,0,1,4.33-5.77c3.19-1.5,12.8-1.26,13.4-3.09a7.42,7.42,0,0,0,2.16,3.15c1.56,1.26,2.77,7.75,1.68,10.22a6.94,6.94,0,0,0,1.85-2.69,9,9,0,0,0,.43-1.34C1787.5,1581.18,1787.62,1570.18,1781.49,1571.14Z" transform="translate(0 -464)"/><circle class="cls-1" cx="2080.32" cy="1132.1" r="59"/><circle class="cls-1" cx="2080.51" cy="1591.72" r="21.54" transform="translate(-333.94 111.58) rotate(-14.59)"/><path class="cls-1" d="M2059.66,1597.15l41.7-10.86" transform="translate(0 -464)"/><path class="cls-1" d="M2075.08,1570.88l10.86,41.7" transform="translate(0 -464)"/><g class="cls-9"><circle class="cls-1" cx="2073.03" cy="1562.99" r="21.54" transform="translate(-326.94 108.77) rotate(-14.59)"/><circle class="cls-1" cx="2087.99" cy="1620.46" r="21.54" transform="translate(-340.94 114.4) rotate(-14.59)"/></g><circle class="cls-1" cx="2080.51" cy="1591.72" r="21.54" transform="translate(-333.94 111.58) rotate(-14.59)"/><path class="cls-1" d="M2080,1617c-.28,4.86-2.68,6.92-7.92,6.92V1627h16.17v-3.07c-5.25,0-7.64-2.06-7.92-6.93Z" transform="translate(0 -464)"/><path class="cls-1" d="M2090.78,1614.24a24.76,24.76,0,1,1-11.07-46.9" transform="translate(0 -464)"/><path class="cls-6" d="M1393.44,2729.81l-33.06-33.06,33.06-33.06" transform="translate(0 -464)"/><path class="cls-6" d="M2153.73,2675.38l33.06,33.06-33.06,33.06" transform="translate(0 -464)"/><line class="cls-3" x1="1587.94" y1="2077.46" x2="1660.94" y2="2077.46"/><line class="cls-3" x1="1742.44" y1="2077.46" x2="1815.44" y2="2077.46"/><line class="cls-3" x1="1898.69" y1="2077.46" x2="1971.69" y2="2077.46"/><circle class="cls-6" cx="1774.44" cy="22.5" r="22"/><polyline class="cls-6" points="1766.94 20 1774.44 27.5 1781.94 20"/><circle class="cls-10" cx="1561.4" cy="5330.92" r="59.5"/><circle class="cls-10" cx="1987.15" cy="5330.92" r="59.5"/><circle class="cls-2" cx="3294.23" cy="4317.97" r="40"/><circle class="cls-2" cx="3294.23" cy="4698.97" r="40"/><circle class="cls-2" cx="2045.59" cy="6124.79" r="29.99"/><path class="cls-2" d="M2015.6,6588.79h60" transform="translate(0 -464)"/><path class="cls-2" d="M2045.59,6558.79v60" transform="translate(0 -464)"/><g class="cls-11"><circle class="cls-2" cx="2045.59" cy="6083.45" r="29.99"/><circle class="cls-2" cx="2045.59" cy="6166.12" r="29.99"/></g><circle class="cls-2" cx="2045.59" cy="6124.79" r="29.99"/><circle class="cls-3" cx="3188.94" cy="872" r="35"/><path class="cls-3" d="M3203.18,1324.93h-28.47a10,10,0,0,0,7.38,9.66,8.67,8.67,0,0,0,5.87,3.3v4.28a6.86,6.86,0,0,1-6.86,6.86v2.37h15.69V1349a6.86,6.86,0,0,1-6.86-6.86v-4.28a8.67,8.67,0,0,0,5.87-3.3h0A10,10,0,0,0,3203.18,1324.93Zm-26.4,1.78h3.48v2.56a8.62,8.62,0,0,0,.44,2.7l0,.15C3178.34,1330.88,3176.78,1328.92,3176.78,1326.71Zm20.4,5.28a8.62,8.62,0,0,0,.44-2.72v-2.56h3.48c0,2.21-1.56,4.17-4,5.41Z" transform="translate(0 -464)"/><circle class="cls-3" cx="3188.94" cy="997.13" r="35"/><path class="cls-3" d="M3188.94,1472.63s5,.06,5-4.22h0a15,15,0,0,1-.73-4.53,6.37,6.37,0,0,1-1.45,1.18,9.44,9.44,0,0,1-5.32,0,7.43,7.43,0,0,1-1.71-1.44,15.72,15.72,0,0,1-.74,4.79h0C3184,1472.69,3188.94,1472.63,3188.94,1472.63Z" transform="translate(0 -464)"/><path class="cls-3" d="M3200.9,1471c-1.23-.68-6.63-2.44-7-2.56h0c0,4.28-5,4.22-5,4.22s-5,.06-5-4.22h0c-.36.12-5.75,1.87-7,2.56s-2.13,1.51-2.13,2.93c0,.5,3.27,3.9,14.22,3.9s13.94-3.41,13.94-3.9C3203,1472.49,3202.17,1471.68,3200.9,1471Z" transform="translate(0 -464)"/><path class="cls-3" d="M3197.11,1454.5a1,1,0,0,0-.86.22,4.11,4.11,0,0,1-1.1,1.6c.64-1.46-.07-5.31-1-6.06a4.4,4.4,0,0,1-1.28-1.87c-.36,1.09-6.06.94-8,1.83a4.38,4.38,0,0,0-2.57,3.42,7.2,7.2,0,0,0,.32,2.92,15.54,15.54,0,0,1-1-1.94.88.88,0,0,0-.73-.12c-.86.25-.58,4,1.6,4.5h0a19.8,19.8,0,0,0,.46,2.52,9.82,9.82,0,0,0,1.65,2.11,7.43,7.43,0,0,0,1.71,1.44,9.44,9.44,0,0,0,5.32,0,6.37,6.37,0,0,0,1.45-1.18,10.91,10.91,0,0,0,1.91-2.37,19.8,19.8,0,0,0,.46-2.53C3197.7,1458.41,3198.1,1454.8,3197.11,1454.5Z" transform="translate(0 -464)"/><path class="cls-3" d="M3193.33,1446.33s-.46-1.64-5-1.85c-4.12-.2-9.42,3.29-6.66,10.15a15.54,15.54,0,0,0,1,1.94,7.2,7.2,0,0,1-.32-2.92,4.38,4.38,0,0,1,2.57-3.42c1.89-.89,7.6-.75,8-1.83a4.4,4.4,0,0,0,1.28,1.87c.93.75,1.64,4.6,1,6.06a4.11,4.11,0,0,0,1.1-1.6,5.31,5.31,0,0,0,.26-.79C3196.9,1452.28,3197,1445.76,3193.33,1446.33Z" transform="translate(0 -464)"/><circle class="cls-3" cx="3188.94" cy="1122.27" r="35"/><circle class="cls-3" cx="3189.06" cy="1583.68" r="12.78" transform="translate(-296.14 390.65) rotate(-14.59)"/><path class="cls-3" d="M3176.69,1586.9l24.73-6.44" transform="translate(0 -464)"/><path class="cls-3" d="M3185.84,1571.31l6.44,24.73" transform="translate(0 -464)"/><g class="cls-12"><circle class="cls-3" cx="3184.62" cy="1566.63" r="12.78" transform="translate(-291.99 388.98) rotate(-14.59)"/><circle class="cls-3" cx="3193.5" cy="1600.72" r="12.78" transform="matrix(0.97, -0.25, 0.25, 0.97, -300.3, 392.32)"/></g><circle class="cls-3" cx="3189.06" cy="1583.68" r="12.78" transform="translate(-296.14 390.65) rotate(-14.59)"/><path class="cls-3" d="M3188.74,1598.68c-.17,2.88-1.59,4.11-4.7,4.11v1.82h9.59v-1.82c-3.11,0-4.53-1.22-4.7-4.11Z" transform="translate(0 -464)"/><path class="cls-3" d="M3195.15,1597a14.69,14.69,0,1,1-6.57-27.82" transform="translate(0 -464)"/><circle class="cls-4" cx="3294.53" cy="5146.3" r="40"/><path class="cls-7" d="M3302.63,5588.65a4.46,4.46,0,0,1,4.45,4.45v36.35a4.46,4.46,0,0,1-4.45,4.45h-16.21a4.46,4.46,0,0,1-4.45-4.45V5593.1a4.46,4.46,0,0,1,4.45-4.45h16.21m0-1h-16.21a5.45,5.45,0,0,0-5.45,5.45v36.35a5.45,5.45,0,0,0,5.45,5.45h16.21a5.45,5.45,0,0,0,5.45-5.45V5593.1a5.45,5.45,0,0,0-5.45-5.45Z" transform="translate(0 -464)"/><path class="cls-7" d="M3294.53,5628.49a1.36,1.36,0,1,1-1.36,1.36,1.37,1.37,0,0,1,1.36-1.36m0-1a2.36,2.36,0,1,0,2.36,2.36,2.36,2.36,0,0,0-2.36-2.36Z" transform="translate(0 -464)"/><line class="cls-4" x1="3280.97" y1="5129.59" x2="3308.09" y2="5129.59"/><line class="cls-4" x1="3280.97" y1="5161.33" x2="3308.09" y2="5161.33"/><polyline class="cls-4" points="3295.24 5138.44 3301.58 5138.44 3301.58 5144.2"/><line class="cls-4" x1="3288.36" y1="5151.66" x2="3301.58" y2="5138.44"/><path class="cls-4" d="M3275.56,5781.69a35.67,35.67,0,0,0,25.18-15.19,9.15,9.15,0,0,1,7.3,14.67c-.41.54-16.45,18.11-16.45,18.11S3277.24,5783.6,3275.56,5781.69Z" transform="translate(0 -464)"/><circle class="cls-4" cx="3291.59" cy="5315.16" r="40"/><circle class="cls-4" cx="3293.94" cy="5486.94" r="40"/><circle class="cls-4" cx="3293.98" cy="5486.94" r="20.33"/><path class="cls-4" d="M3273.64,5950.94h40.67" transform="translate(0 -464)"/><path class="cls-4" d="M3294,5930.6v40.67" transform="translate(0 -464)"/><g class="cls-13"><circle class="cls-4" cx="3293.98" cy="5458.91" r="20.33"/><circle class="cls-4" cx="3293.98" cy="5514.96" r="20.33"/></g><circle class="cls-4" cx="3293.98" cy="5486.94" r="20.33"/><path class="cls-7" d="M3419.42,6096a3.53,3.53,0,0,1,3.52,3.52v35a3.53,3.53,0,0,1-3.52,3.52h-251a3.53,3.53,0,0,1-3.52-3.52v-35a3.53,3.53,0,0,1,3.52-3.52h251m0-1h-251a4.52,4.52,0,0,0-4.52,4.52v35a4.52,4.52,0,0,0,4.52,4.52h251a4.52,4.52,0,0,0,4.52-4.52v-35a4.52,4.52,0,0,0-4.52-4.52Z" transform="translate(0 -464)"/><circle class="cls-3" cx="3254.94" cy="1745.46" r="22"/><circle class="cls-3" cx="3332.94" cy="1745.46" r="22"/><circle class="cls-3" cx="3410.94" cy="1745.46" r="22"/><line class="cls-3" x1="3201.94" y1="1745.6" x2="3229.94" y2="1745.6"/><line class="cls-3" x1="3279.94" y1="1745.6" x2="3307.94" y2="1745.6"/><line class="cls-3" x1="3357.94" y1="1745.6" x2="3385.94" y2="1745.6"/><path class="cls-8" d="M3422.94,3333v38h-113v-38h113m1-1h-115v40h115v-40Z" transform="translate(0 -464)"/><path class="cls-8" d="M3422.94,3421v38h-113v-38h113m1-1h-115v40h115v-40Z" transform="translate(0 -464)"/><path class="cls-14" d="M3752.18,3198.51a3.53,3.53,0,0,1,3.52,3.52v35a3.53,3.53,0,0,1-3.52,3.52h-251a3.53,3.53,0,0,1-3.52-3.52v-35a3.53,3.53,0,0,1,3.52-3.52h251m0-1h-251a4.52,4.52,0,0,0-4.52,4.52v35a4.52,4.52,0,0,0,4.52,4.52h251a4.52,4.52,0,0,0,4.52-4.52v-35a4.52,4.52,0,0,0-4.52-4.52Z" transform="translate(0 -464)"/><polyline class="cls-15" points="3428.94 1860.29 3443.94 1845.29 3428.94 1830.29"/><polyline class="cls-15" points="3158.94 1830.29 3143.94 1845.29 3158.94 1860.29"/><polyline class="cls-15" points="3428.63 127.75 3443.63 112.75 3428.63 97.75"/><polyline class="cls-15" points="3158.63 97.75 3143.63 112.75 3158.63 127.75"/><line class="cls-16" x1="1438.94" y1="6055.5" x2="1449.94" y2="6055.5"/><line class="cls-16" x1="1438.94" y1="6055.5" x2="1438.94" y2="6054.32"/><line class="cls-16" x1="1449.94" y1="6055.5" x2="1449.94" y2="6054.32"/><text class="cls-17" transform="translate(1438.14 6055.69)">0,0</text><text class="cls-17" transform="translate(1438.14 6046.29)">0,2</text><text class="cls-17" transform="translate(1438.14 6036.89)">0,4</text><text class="cls-17" transform="translate(1438.14 6027.49)">0,6</text><text class="cls-17" transform="translate(1438.14 6018.09)">0,8</text><text class="cls-17" transform="translate(1438.14 6008.69)">1,0</text><line class="cls-16" x1="1438.94" y1="6055.5" x2="1438.94" y2="6008.5"/><line class="cls-16" x1="1438.94" y1="6055.5" x2="1439.22" y2="6055.5"/><line class="cls-16" x1="1438.94" y1="6046.1" x2="1439.22" y2="6046.1"/><line class="cls-16" x1="1438.94" y1="6036.7" x2="1439.22" y2="6036.7"/><line class="cls-16" x1="1438.94" y1="6027.3" x2="1439.22" y2="6027.3"/><line class="cls-16" x1="1438.94" y1="6017.9" x2="1439.22" y2="6017.9"/><line class="cls-16" x1="1438.94" y1="6008.5" x2="1439.22" y2="6008.5"/><rect class="cls-18" x="1440.48" y="6008.5" width="7.92" height="47"/></g></g></svg>