<svg xmlns="http://www.w3.org/2000/svg" viewBox="0 0 80 113"><defs><style>.cls-1{fill:#efefef;}.cls-2{fill:#cbcbcb;}.cls-3,.cls-5{fill:#363636;}.cls-4{fill:#ea2d2e;}.cls-5{font-size:8px;font-family:Roboto-Regular, Roboto Regular;letter-spacing:0.03em;}.cls-6{letter-spacing:0.03em;}.cls-7{letter-spacing:0.02em;}.cls-8{letter-spacing:0.04em;}.cls-9{letter-spacing:0.01em;}.cls-10{letter-spacing:0.02em;}.cls-11{letter-spacing:0.01em;}.cls-12{letter-spacing:0.03em;}</style></defs><title>Ресурс 1</title><g id="Слой_2" data-name="Слой 2"><g id="Главная"><rect class="cls-1" width="80" height="113"/><rect class="cls-2" y="89" width="80" height="1"/><path id="path3" class="cls-3" d="M12.27,58.09h.86v7.62h-.86Z"/><path id="path5" class="cls-3" d="M15.22,60.08h.84v1A2.13,2.13,0,0,1,18,60a2.06,2.06,0,0,1,2.16,2.25v3.5h-.84V62.42a1.5,1.5,0,0,0-1.56-1.7,1.66,1.66,0,0,0-1.69,1.76v3.22h-.84Z"/><path id="path7" class="cls-3" d="M22.23,64.22v-3.4h-.78v-.74h.78v-1.7h.84v1.7h1.79v.74H23.06v3.29A.83.83,0,0,0,24,65a1.76,1.76,0,0,0,.82-.2v.72a2.11,2.11,0,0,1-1,.24A1.43,1.43,0,0,1,22.23,64.22Z"/><path id="path9" class="cls-3" d="M28.65,65.11a2.33,2.33,0,0,0,1.77-.79l.52.47a2.91,2.91,0,0,1-2.32,1.06A2.95,2.95,0,0,1,28.52,60a2.68,2.68,0,0,1,2.62,3c0,.08,0,.16,0,.29H26.67a2,2,0,0,0,2,1.87Zm1.64-2.55a1.85,1.85,0,0,0-1.8-1.89,1.94,1.94,0,0,0-1.83,1.89Z"/><path id="path11" class="cls-3" d="M32.61,60.08h.84v1.47A2.41,2.41,0,0,1,35.75,60v.9h-.07c-1.23,0-2.23.88-2.23,2.58v2.24h-.84V60.08Z"/><path id="path13" class="cls-3" d="M36.33,64.08v0c0-1.21,1-1.84,2.41-1.84a5.9,5.9,0,0,1,1.72.24v-.17c0-1-.61-1.52-1.67-1.52a3.92,3.92,0,0,0-1.71.4l-.25-.69a4.61,4.61,0,0,1,2-.48,2.5,2.5,0,0,1,1.82.62,2.23,2.23,0,0,1,.59,1.65v3.44h-.83v-.84a2.47,2.47,0,0,1-2,1A1.89,1.89,0,0,1,36.33,64.08Zm4.14-.44v-.52a5.78,5.78,0,0,0-1.64-.24c-1,0-1.64.46-1.64,1.13v0c0,.71.65,1.12,1.42,1.12A1.68,1.68,0,0,0,40.46,63.64Z"/><path id="path15" class="cls-3" d="M42.71,62.93v0A2.93,2.93,0,0,1,47.85,61l-.56.59a2.27,2.27,0,0,0-1.71-.85,2.08,2.08,0,0,0-2,2.18v0a2.1,2.1,0,0,0,2.07,2.19,2.32,2.32,0,0,0,1.72-.84l.53.5a2.91,2.91,0,0,1-5.18-1.83Z"/><path id="path17" class="cls-3" d="M49.57,64.22v-3.4h-.78v-.74h.78v-1.7h.84v1.7h1.79v.74H50.4v3.29a.83.83,0,0,0,.95.94,1.76,1.76,0,0,0,.82-.2v.72a2.11,2.11,0,0,1-1,.24,1.43,1.43,0,0,1-1.59-1.59Z"/><path id="path19" class="cls-3" d="M53.69,57.93h1v.93h-1Zm.05,2.16h.84v5.63h-.84Z"/><path id="path21" class="cls-3" d="M56,60.08h.93l1.89,4.67,1.91-4.67h.9l-2.45,5.67h-.74Z"/><path id="path23" class="cls-3" d="M65.08,65.11a2.33,2.33,0,0,0,1.77-.79l.52.47a2.91,2.91,0,0,1-2.32,1.06A2.95,2.95,0,0,1,64.95,60a2.68,2.68,0,0,1,2.62,3c0,.08,0,.16,0,.29H63.1A2,2,0,0,0,65.08,65.11Zm1.64-2.55a1.85,1.85,0,0,0-1.8-1.89,1.94,1.94,0,0,0-1.83,1.89Z"/><path id="path25" class="cls-3" d="M19.75,71H23a2.8,2.8,0,0,1,2,.68,1.69,1.69,0,0,1,.49,1.22v0a1.84,1.84,0,0,1-1.21,1.76c.9.27,1.63.79,1.63,1.84v0c0,1.31-1.1,2.08-2.77,2.08H19.75Zm3.1,3.4c1,0,1.75-.47,1.75-1.36v0c0-.75-.6-1.24-1.69-1.24H20.6v2.62Zm.3,3.45c1.15,0,1.87-.51,1.87-1.36v0c0-.83-.7-1.31-2-1.31H20.6v2.69Z"/><path id="path27" class="cls-3" d="M27.47,73h.84V74.5a2.41,2.41,0,0,1,2.3-1.57v.9h-.07c-1.23,0-2.23.88-2.23,2.58v2.24h-.84V73Z"/><path id="path29" class="cls-3" d="M31.29,75.87v0a2.93,2.93,0,0,1,5.87,0v0a2.92,2.92,0,0,1-3,2.94A2.88,2.88,0,0,1,31.29,75.87Zm5,0v0a2.13,2.13,0,0,0-2.09-2.2,2.08,2.08,0,0,0-2.06,2.18v0A2.11,2.11,0,0,0,34.23,78,2.08,2.08,0,0,0,36.3,75.87Z"/><path id="path31" class="cls-3" d="M38.67,70.71h.84v5.49l3-3.17h1l-2.36,2.42,2.44,3.21h-1l-2-2.62-1.14,1.15v1.47h-.84V70.71Z"/><path id="path33" class="cls-3" d="M47.08,78.06a2.33,2.33,0,0,0,1.77-.79l.52.47a2.91,2.91,0,0,1-2.32,1.06,2.95,2.95,0,0,1-.11-5.88,2.68,2.68,0,0,1,2.62,3c0,.08,0,.16,0,.29H45.1A2,2,0,0,0,47.08,78.06Zm1.64-2.55a1.85,1.85,0,0,0-1.8-1.89,1.94,1.94,0,0,0-1.83,1.89Z"/><path id="path35" class="cls-3" d="M51,73h.84V74.5a2.41,2.41,0,0,1,2.3-1.57v.9h-.07c-1.23,0-2.23.88-2.23,2.58v2.24H51Z"/><path id="path37" class="cls-3" d="M55,77.94l.42-.6a3.29,3.29,0,0,0,1.95.72c.67,0,1.16-.35,1.16-.89v0c0-.57-.66-.78-1.4-1s-1.86-.56-1.86-1.59v0a1.7,1.7,0,0,1,1.92-1.61,3.85,3.85,0,0,1,2,.62l-.38.63a3.18,3.18,0,0,0-1.67-.54c-.66,0-1.09.35-1.09.82v0c0,.53.7.74,1.45,1s1.81.6,1.81,1.61v0a1.77,1.77,0,0,1-2,1.69A3.87,3.87,0,0,1,55,77.94Z"/><g id="g39"><polygon id="polygon41" class="cls-4" points="46.41 30.05 37.86 18.05 37.86 18.05 36.2 19.17 43.74 31.58 46.41 30.05"/><polygon id="polygon43" class="cls-4" points="46.82 45.86 46.82 31.53 33.85 39.02 33.85 39.02 40.21 49.3 40.33 49.3 46.82 45.86"/><polygon id="polygon45" class="cls-4" points="37.44 17.38 37.29 15.58 36.19 15.08 35.27 15.19 34.81 15.8 33.52 14.5 33.03 14.92 34.54 16.87 34.5 17.86 35.68 18.43 37.44 17.38"/><circle id="circle47" class="cls-4" cx="38.11" cy="31.53" r="3.1"/></g><text class="cls-5" transform="translate(12.88 103.37)">пр<tspan class="cls-6" x="9.28" y="0">е</tspan><tspan class="cls-7" x="13.51" y="0">д</tspan><tspan class="cls-8" x="17.92" y="0">с</tspan><tspan class="cls-9" x="21.83" y="0">т</tspan><tspan x="25.21" y="0">ав</tspan><tspan class="cls-10" x="33.46" y="0">и</tspan><tspan class="cls-11" x="38.07" y="0">т</tspan><tspan class="cls-12" x="41.4" y="0">е</tspan><tspan x="45.65" y="0">ль</tspan></text></g></g></svg>