<svg xmlns="http://www.w3.org/2000/svg" width="35" height="35" viewBox="0 0 35 35">
  <metadata><?xpacket begin="﻿" id="W5M0MpCehiHzreSzNTczkc9d"?>
<x:xmpmeta xmlns:x="adobe:ns:meta/" x:xmptk="Adobe XMP Core 5.6-c138 79.159824, 2016/09/14-01:09:01        ">
   <rdf:RDF xmlns:rdf="http://www.w3.org/1999/02/22-rdf-syntax-ns#">
      <rdf:Description rdf:about=""/>
   </rdf:RDF>
</x:xmpmeta>
                                                                                                    
                                                                                                    
                                                                                                    
                                                                                                    
                                                                                                    
                                                                                                    
                                                                                                    
                                                                                                    
                                                                                                    
                                                                                                    
                                                                                                    
                                                                                                    
                                                                                                    
                                                                                                    
                                                                                                    
                                                                                                    
                                                                                                    
                                                                                                    
                                                                                                    
                                                                                                    
                           
<?xpacket end="w"?></metadata>
<defs>
    <style>
      .cls-1 {
        fill: #292a2f;
        fill-rule: evenodd;
      }
    </style>
  </defs>
  <path id="G_" data-name="G+" class="cls-1" d="M911,243v35h35V243H911Zm12.437,26.36a8.86,8.86,0,0,1,0-17.72,8.206,8.206,0,0,1,5.949,2.405l-2.4,2.278a4.876,4.876,0,0,0-3.544-1.392,5.571,5.571,0,0,0,0,11.139,4.861,4.861,0,0,0,5.063-3.8h-5.063v-3.037h8.354a5.691,5.691,0,0,1,.126,1.518c0,5.064-3.417,8.607-8.48,8.607h0Zm18.986-7.594h-2.532V264.3H937.36v-2.532h-2.532v-2.531h2.532V256.7h2.531v2.532h2.532v2.531Zm0,0" transform="translate(-911 -243)"/>
</svg>
