<svg xmlns="http://www.w3.org/2000/svg" width="19" height="20" viewBox="0 0 19 20">
  <metadata><?xpacket begin="﻿" id="W5M0MpCehiHzreSzNTczkc9d"?>
<x:xmpmeta xmlns:x="adobe:ns:meta/" x:xmptk="Adobe XMP Core 5.6-c138 79.159824, 2016/09/14-01:09:01        ">
   <rdf:RDF xmlns:rdf="http://www.w3.org/1999/02/22-rdf-syntax-ns#">
      <rdf:Description rdf:about=""/>
   </rdf:RDF>
</x:xmpmeta>
                                                                                                    
                                                                                                    
                                                                                                    
                                                                                                    
                                                                                                    
                                                                                                    
                                                                                                    
                                                                                                    
                                                                                                    
                                                                                                    
                                                                                                    
                                                                                                    
                                                                                                    
                                                                                                    
                                                                                                    
                                                                                                    
                                                                                                    
                                                                                                    
                                                                                                    
                                                                                                    
                           
<?xpacket end="w"?></metadata>
<defs>
    <style>
      .cls-1 {
        fill: #4d917a;
        fill-rule: evenodd;
      }
    </style>
  </defs>
  <path id="icon-profile" class="cls-1" d="M1058.46,29.222a5.614,5.614,0,1,0-5.79-5.62,5.708,5.708,0,0,0,5.79,5.62h0Zm0-9.757a4.139,4.139,0,1,1-4.26,4.137,4.217,4.217,0,0,1,4.26-4.137h0Zm0,0M1049.77,38h17.46a0.75,0.75,0,0,0,.77-0.741,7.178,7.178,0,0,0-7.28-7.051h-4.44a7.174,7.174,0,0,0-7.28,7.051,0.75,0.75,0,0,0,.77.741h0Zm6.51-6.31h4.44a5.678,5.678,0,0,1,5.69,4.828h-15.82a5.692,5.692,0,0,1,5.69-4.828h0Zm0,0" transform="translate(-1049 -18)"/>
</svg>
